<?xml version="1.0" standalone="yes"?>
<svg xmlns="http://www.w3.org/2000/svg" width="274" height="274">
<path style="fill:#341f6b; stroke:none;" d="M0 0L0 274L274 274L274 0L0 0z"/>
<path style="fill:#4c2e32; stroke:none;" d="M244.667 11.3333L245.333 11.6667L244.667 11.3333M248.667 11.3333L249.333 11.6667L248.667 11.3333M27 12L27 63C27 71.1856 24.5755 79.8765 35 80L35 79L28 79L28 33L27 12z"/>
<path style="fill:#a58047; stroke:none;" d="M28 12L28 13L254 13L233 12L187 12L28 12z"/>
<path style="fill:#4c2e32; stroke:none;" d="M254 12L254 79L255 79L255 33L254 12z"/>
<path style="fill:#dab46f; stroke:none;" d="M28 13L29 14L28 13z"/>
<path style="fill:#fcce39; stroke:none;" d="M28 78L35 78L35 37L36.6034 22.6034L48 21L78 21L200 21L233 21L245.397 22.6034L247 37L247 78L254 78L254 30L252.397 14.0278L239 13L203 13L75 13L42 13L29.6034 14.0278L28 30L28 78z"/>
<path style="fill:#dab46f; stroke:none;" d="M253 13L254 14L253 13z"/>
<path style="fill:#a58047; stroke:none;" d="M36 21L36 22L246 22L226 21L184 21L36 21z"/>
<path style="fill:#dab46f; stroke:none;" d="M35 22L35 78L36 78L36 40L35 22z"/>
<path style="fill:#4c2e32; stroke:none;" d="M36 22L36 73L37 73C37 58.6892 41.5084 35.1273 36 22M245 22L246 23L245 22z"/>
<path style="fill:#dab46f; stroke:none;" d="M246 22L246 65C246 71.9056 244.351 78.716 253 79L253 78L247 78L247 40L246 22z"/>
<path style="fill:#4c2e32; stroke:none;" d="M245 25L245 73L246 73C246 59.4735 250.209 37.4144 245 25M36 74L36 77L37 77L36 74M245 75L245 78L246 78L245 75z"/>
<path style="fill:#a58047; stroke:none;" d="M28 78L29 79L28 78z"/>
<path style="fill:#dab46f; stroke:none;" d="M29 78L29 79L34 79L29 78z"/>
<path style="fill:#a58047; stroke:none;" d="M34.6667 78.3333L35.3333 78.6667L34.6667 78.3333M246 78L247 79L246 78M253 78L254 79L253 78z"/>
<path style="fill:#4c2e32; stroke:none;" d="M247 79L247 80L253 80L247 79M139 84L139 85L158 85L139 84M137 85L131 94L132 94L137 85z"/>
<path style="fill:#a58047; stroke:none;" d="M138 85L139 86L138 85z"/>
<path style="fill:#dab46f; stroke:none;" d="M139.667 85.3333L140.333 85.6667L139.667 85.3333z"/>
<path style="fill:#fcce39; stroke:none;" d="M130 111L124 112C124.61 116.4 125.307 119.219 130 120L129.683 146.957L125 162L152 162C152.568 154.476 150.976 151.245 143 150L143 120C151.801 120 157.963 121.505 158 111L143 111C143 105.956 142.042 98.5643 148.001 96.3272C151.695 94.9403 166.962 108.292 163.718 92.0154C162.053 83.6639 144.082 82.8394 138.134 86.8827C130.179 92.2903 130 102.489 130 111z"/>
<path style="fill:#dab46f; stroke:none;" d="M142 85L143 86L142 85M151 85L151 86L155 86L151 85M156.667 85.3333L157.333 85.6667L156.667 85.3333z"/>
<path style="fill:#a58047; stroke:none;" d="M158 85L159 86L158 85z"/>
<path style="fill:#4c2e32; stroke:none;" d="M159 85L160 86L159 85z"/>
<path style="fill:#dab46f; stroke:none;" d="M137 86L138 87L137 86z"/>
<path style="fill:#a58047; stroke:none;" d="M160 86L161 87L160 86z"/>
<path style="fill:#4c2e32; stroke:none;" d="M161 86L161 87L164 88L161 86M44 93L45 93L45 88L68 88C61.6186 85.3223 44.6746 84.3423 44 93z"/>
<path style="fill:#a58047; stroke:none;" d="M136 87L137 88L136 87M162 87L164 91L165 91L162 87z"/>
<path style="fill:#dab46f; stroke:none;" d="M45 88L45 91L46 91L45 88z"/>
<path style="fill:#fcce39; stroke:none;" d="M46 88C44.5111 96.0246 49.0012 98.7385 49.7755 106.001C50.9148 116.688 48.758 127.355 49.0147 138C49.2478 147.67 51.4255 157.665 48.902 167.285C44.5806 183.758 32.6931 152.758 29.1034 171.005C25.9763 186.9 53.156 187.319 59.8519 176.957C63.4093 171.451 62.9996 163.3 63 157L63 120C63 111.216 60.8428 102.358 69 97C66.6713 84.7001 56.5582 88 46 88z"/>
<path style="fill:#dab46f; stroke:none;" d="M67 88L68 89L67 88z"/>
<path style="fill:#a58047; stroke:none;" d="M68 88L68 93L69 93L68 88z"/>
<path style="fill:#dab46f; stroke:none;" d="M135.333 88.6667L135.667 89.3333L135.333 88.6667M162 88L163 89L162 88z"/>
<path style="fill:#4c2e32; stroke:none;" d="M164 89L165 90L164 89z"/>
<path style="fill:#dab46f; stroke:none;" d="M134 90L135 91L134 90z"/>
<path style="fill:#4c2e32; stroke:none;" d="M69 91L68 99L69 99L69 91z"/>
<path style="fill:#a58047; stroke:none;" d="M133 91L134 92L133 91z"/>
<path style="fill:#dab46f; stroke:none;" d="M164 91L164 95L165 95L164 91z"/>
<path style="fill:#4c2e32; stroke:none;" d="M165 91L165 96L166 96L165 91z"/>
<path style="fill:#a58047; stroke:none;" d="M44 93L44 96L45 96L44 93z"/>
<path style="fill:#dab46f; stroke:none;" d="M68.3333 93.6667L68.6667 94.3333L68.3333 93.6667M132 93L133 94L132 93z"/>
<path style="fill:#a58047; stroke:none;" d="M131 94L132 95L131 94z"/>
<path style="fill:#4c2e32; stroke:none;" d="M130.333 95.6667L130.667 96.3333L130.333 95.6667z"/>
<path style="fill:#dab46f; stroke:none;" d="M131.333 95.6667L131.667 96.3333L131.333 95.6667M148 95L148 96L152 98L148 95z"/>
<path style="fill:#a58047; stroke:none;" d="M164.333 95.6667L164.667 96.3333L164.333 95.6667z"/>
<path style="fill:#4c2e32; stroke:none;" d="M43 96L44 97L43 96z"/>
<path style="fill:#dab46f; stroke:none;" d="M44.3333 96.6667L44.6667 97.3333L44.3333 96.6667M146 96L147 97L146 96z"/>
<path style="fill:#4c2e32; stroke:none;" d="M147 96L147 97L152 97L147 96z"/>
<path style="fill:#dab46f; stroke:none;" d="M68 97L69 98L68 97z"/>
<path style="fill:#a58047; stroke:none;" d="M130 97L131 98L130 97M145 97L144 99L145 97z"/>
<path style="fill:#4c2e32; stroke:none;" d="M146 97L147 98L146 97M164 97L165 98L164 97M45 98L46 99L45 98z"/>
<path style="fill:#dab46f; stroke:none;" d="M66 98L67 99L66 98z"/>
<path style="fill:#a58047; stroke:none;" d="M67 98L68 99L67 98z"/>
<path style="fill:#4c2e32; stroke:none;" d="M129 98L129 101L130 101L129 98z"/>
<path style="fill:#dab46f; stroke:none;" d="M130 98L131 99L130 98z"/>
<path style="fill:#4c2e32; stroke:none;" d="M145 98L146 99L145 98M152 98L156 103L156 102L152 98z"/>
<path style="fill:#a58047; stroke:none;" d="M163 98L164 99L163 98z"/>
<path style="fill:#4c2e32; stroke:none;" d="M46 99L48 124L47 170L48 170C51.1449 153.06 49 134.208 49 117C49 111.468 50.9342 102.558 46 99z"/>
<path style="fill:#dab46f; stroke:none;" d="M47 99L48 100L47 99M64 99L65 100L64 99z"/>
<path style="fill:#a58047; stroke:none;" d="M65 99L66 100L65 99z"/>
<path style="fill:#4c2e32; stroke:none;" d="M66 99L67 100L66 99z"/>
<path style="fill:#dab46f; stroke:none;" d="M143.333 99.6667L143.667 100.333L143.333 99.6667z"/>
<path style="fill:#4c2e32; stroke:none;" d="M144.333 99.6667L144.667 100.333L144.333 99.6667z"/>
<path style="fill:#dab46f; stroke:none;" d="M153 99L154 100L153 99z"/>
<path style="fill:#4c2e32; stroke:none;" d="M163 99L163 102L164 102L163 99z"/>
<path style="fill:#a58047; stroke:none;" d="M63 100L63 163L64 163L64 120L63 100z"/>
<path style="fill:#4c2e32; stroke:none;" d="M64 100L65 101L64 100z"/>
<path style="fill:#a58047; stroke:none;" d="M153 100L154 101L153 100z"/>
<path style="fill:#dab46f; stroke:none;" d="M162 100L154 101L154 102L162 100z"/>
<path style="fill:#a58047; stroke:none;" d="M129 101L127 110L127 111C130.515 108.721 130.551 104.698 129 101M143 101L143 110L144 110L143 101z"/>
<path style="fill:#4c2e32; stroke:none;" d="M158 102L159 103L158 102z"/>
<path style="fill:#dab46f; stroke:none;" d="M49 103L49 111L50 111L49 103z"/>
<path style="fill:#4c2e32; stroke:none;" d="M128 105L129 106L128 105M94 107L95 108L94 107M86 108L86 109L90 109L86 108z"/>
<path style="fill:#a58047; stroke:none;" d="M90 108L90 109L100 109L90 108z"/>
<path style="fill:#4c2e32; stroke:none;" d="M100 108L100 109L104 109L100 108M128.333 108.667L128.667 109.333L128.333 108.667M177 108L177 109L181 109L177 108z"/>
<path style="fill:#a58047; stroke:none;" d="M181 108L181 109L190 109L181 108z"/>
<path style="fill:#4c2e32; stroke:none;" d="M190 108L190 109L197 110L190 108M227 108L227 109L230 109L227 108z"/>
<path style="fill:#a58047; stroke:none;" d="M230 108L230 109L241 109L230 108z"/>
<path style="fill:#4c2e32; stroke:none;" d="M241 108L241 109L245 109L241 108M83.6667 109.333L84.3333 109.667L83.6667 109.333z"/>
<path style="fill:#a58047; stroke:none;" d="M85 109L86 110L85 109z"/>
<path style="fill:#dab46f; stroke:none;" d="M86.6667 109.333L87.3333 109.667L86.6667 109.333z"/>
<path style="fill:#fcce39; stroke:none;" d="M86 125L87 119C97.1158 119.008 100.971 122.819 101 133C92.8526 133 82.8556 132.027 76.2284 137.789C69.0973 143.99 72.8679 157.831 81.0147 161.293C89.6435 164.961 98.3215 161.03 105 156C107.054 173.895 131.302 151.991 114 150C114 139.643 116.831 124.375 111.467 115.105C106.704 106.874 82.2612 106.025 76.2593 113.499C69.984 121.314 80.311 124.996 86 125z"/>
<path style="fill:#dab46f; stroke:none;" d="M102 109L103 110L102 109z"/>
<path style="fill:#a58047; stroke:none;" d="M103.667 109.333L104.333 109.667L103.667 109.333z"/>
<path style="fill:#4c2e32; stroke:none;" d="M105.667 109.333L106.333 109.667L105.667 109.333M144.667 109.333L145.333 109.667L144.667 109.333M149 109L149 110L153 110L149 109M154 109L154 110L157 110L154 109M175 109L172 110L172 111L176 110L175 109z"/>
<path style="fill:#a58047; stroke:none;" d="M175 111L178 110L175 111z"/>
<path style="fill:#dab46f; stroke:none;" d="M178.667 109.333L179.333 109.667L178.667 109.333z"/>
<path style="fill:#fcce39; stroke:none;" d="M180 109.468C161.02 113.025 155.728 143.629 168.213 156.895C174.062 163.11 186.032 163.458 193.996 161.606C203.002 159.511 207.267 148.034 208.421 140C211.159 120.935 200.432 105.638 180 109.468z"/>
<path style="fill:#dab46f; stroke:none;" d="M192.667 109.333L193.333 109.667L192.667 109.333z"/>
<path style="fill:#a58047; stroke:none;" d="M194 109L195 110L194 109z"/>
<path style="fill:#4c2e32; stroke:none;" d="M225 109L226 110L225 109z"/>
<path style="fill:#a58047; stroke:none;" d="M226.667 109.333L227.333 109.667L226.667 109.333z"/>
<path style="fill:#fcce39; stroke:none;" d="M241 118C243.319 128.833 255.844 119.513 250.968 112.514C248.953 109.621 243.171 109.477 240 109.17C229.149 108.12 215.406 110.538 215.749 124C216.012 134.307 220.755 136.846 230 139.806C233.727 140.999 242.031 142.315 240.914 147.961C238.085 162.251 219.778 140.85 216.122 151.148C210.9 165.858 240.96 164.776 247.699 159.347C249.744 157.7 251.43 155.358 252.558 152.999C262.571 132.05 237.54 134.605 229.623 124.582C224.171 117.68 237.729 118 241 118z"/>
<path style="fill:#dab46f; stroke:none;" d="M242 109L242 110L245 110L242 109z"/>
<path style="fill:#a58047; stroke:none;" d="M245 109L246 110L245 109z"/>
<path style="fill:#4c2e32; stroke:none;" d="M246 109L246 110L249 110L246 109M78 110L78 111L82 111L78 110z"/>
<path style="fill:#a58047; stroke:none;" d="M82 110L83 111L82 110z"/>
<path style="fill:#dab46f; stroke:none;" d="M83 110L84 111L83 110M106 110L107 111L106 110z"/>
<path style="fill:#a58047; stroke:none;" d="M107 110L108 111L107 110z"/>
<path style="fill:#4c2e32; stroke:none;" d="M108.667 110.333L109.333 110.667L108.667 110.333M124 110L124 111L127 111L124 110z"/>
<path style="fill:#dab46f; stroke:none;" d="M129 110L130 111L129 110M143 110L143 111L158 111L157 120C167.476 110.846 147.692 110 143 110z"/>
<path style="fill:#a58047; stroke:none;" d="M158 110L159 111L158 110z"/>
<path style="fill:#dab46f; stroke:none;" d="M196 110L197 111L196 110z"/>
<path style="fill:#a58047; stroke:none;" d="M197 110L198 111L197 110z"/>
<path style="fill:#4c2e32; stroke:none;" d="M198 110L198 111L201 111L198 110M221 110L221 111L224 111L221 110z"/>
<path style="fill:#a58047; stroke:none;" d="M224 110L225 111L224 110z"/>
<path style="fill:#dab46f; stroke:none;" d="M225 110L226 111L225 110M248 110L249 111L248 110z"/>
<path style="fill:#a58047; stroke:none;" d="M249 110L250 111L249 110z"/>
<path style="fill:#4c2e32; stroke:none;" d="M250 110L250 111L252 118L253 118L250 110M76 111L77 112L76 111z"/>
<path style="fill:#a58047; stroke:none;" d="M77 111L78 112L77 111z"/>
<path style="fill:#dab46f; stroke:none;" d="M78 111L78 112L81 112L78 111M108 111L108 112L111 113L108 111z"/>
<path style="fill:#a58047; stroke:none;" d="M110 111L111 112L110 111z"/>
<path style="fill:#dab46f; stroke:none;" d="M124.667 111.333L125.333 111.667L124.667 111.333z"/>
<path style="fill:#4c2e32; stroke:none;" d="M159 111L159 120L160 120L159 111M170 111C165.612 115.811 162.346 120.35 162 127L163 127L170 111z"/>
<path style="fill:#a58047; stroke:none;" d="M171 111L172 112L171 111z"/>
<path style="fill:#dab46f; stroke:none;" d="M172.667 111.333L173.333 111.667L172.667 111.333M199 111L199 112L204 115L199 111z"/>
<path style="fill:#a58047; stroke:none;" d="M201 111L202 112L201 111z"/>
<path style="fill:#4c2e32; stroke:none;" d="M202.333 111.667L202.667 112.333L202.333 111.667M219 111L216 115L219 111z"/>
<path style="fill:#a58047; stroke:none;" d="M220 111L221 112L220 111z"/>
<path style="fill:#dab46f; stroke:none;" d="M221.667 111.333L222.333 111.667L221.667 111.333M251 111L252 112L251 111M49 112L49 129L50 129L49 112z"/>
<path style="fill:#4c2e32; stroke:none;" d="M74 112L74 116L75 116L74 112z"/>
<path style="fill:#a58047; stroke:none;" d="M75 112L76 113L75 112z"/>
<path style="fill:#4c2e32; stroke:none;" d="M111 112L112 115L113 115L111 112M123 112L123 119L124 119L123 112z"/>
<path style="fill:#dab46f; stroke:none;" d="M170 112L171 113L170 112z"/>
<path style="fill:#a58047; stroke:none;" d="M219 112L220 113L219 112z"/>
<path style="fill:#dab46f; stroke:none;" d="M75 113L76 114L75 113z"/>
<path style="fill:#a58047; stroke:none;" d="M111 113L112 114L111 113z"/>
<path style="fill:#dab46f; stroke:none;" d="M169 113L170 114L169 113z"/>
<path style="fill:#4c2e32; stroke:none;" d="M203 113L204 114L203 113z"/>
<path style="fill:#a58047; stroke:none;" d="M218 113L219 114L218 113z"/>
<path style="fill:#dab46f; stroke:none;" d="M111 114L112 115L111 114M168 114L169 115L168 114z"/>
<path style="fill:#4c2e32; stroke:none;" d="M204 114L205 115L204 114z"/>
<path style="fill:#a58047; stroke:none;" d="M217 114L218 115L217 114z"/>
<path style="fill:#dab46f; stroke:none;" d="M75 115L76 116L75 115z"/>
<path style="fill:#a58047; stroke:none;" d="M112.333 115.667L112.667 116.333L112.333 115.667z"/>
<path style="fill:#dab46f; stroke:none;" d="M124 115L124 118L125 118L124 115M167.333 115.667L167.667 116.333L167.333 115.667z"/>
<path style="fill:#a58047; stroke:none;" d="M204.333 115.667L204.667 116.333L204.333 115.667M216.333 115.667L216.667 116.333L216.333 115.667M74 116L75 117L74 116z"/>
<path style="fill:#4c2e32; stroke:none;" d="M113.333 116.667L113.667 117.333L113.333 116.667M205 116L207 119L205 116M74 117L75 126L76 126L74 117z"/>
<path style="fill:#dab46f; stroke:none;" d="M112 117L113 118L112 117M166 117L167 118L166 117z"/>
<path style="fill:#4c2e32; stroke:none;" d="M215 117L216 118L215 117z"/>
<path style="fill:#dab46f; stroke:none;" d="M216 117L217 118L216 117z"/>
<path style="fill:#a58047; stroke:none;" d="M113 118L114 119L113 118M124.333 118.667L124.667 119.333L124.333 118.667M165 118L166 119L165 118z"/>
<path style="fill:#dab46f; stroke:none;" d="M205 118L206 119L205 118z"/>
<path style="fill:#a58047; stroke:none;" d="M215 118L216 119L215 118z"/>
<path style="fill:#dab46f; stroke:none;" d="M229 118L230 119L229 118z"/>
<path style="fill:#a58047; stroke:none;" d="M230 118L231 119L230 118z"/>
<path style="fill:#4c2e32; stroke:none;" d="M231 118L231 119L238 119L231 118z"/>
<path style="fill:#a58047; stroke:none;" d="M238 118L238 119L241 120L238 118z"/>
<path style="fill:#dab46f; stroke:none;" d="M240 118L241 119L240 118M251 118L252 119L251 118M87 119L88 120L87 119z"/>
<path style="fill:#a58047; stroke:none;" d="M88 119L88 120L91 120L88 119z"/>
<path style="fill:#4c2e32; stroke:none;" d="M91 119L91 120L94 120L91 119z"/>
<path style="fill:#a58047; stroke:none;" d="M94.6667 119.333L95.3333 119.667L94.6667 119.333z"/>
<path style="fill:#dab46f; stroke:none;" d="M96 119L97 120L96 119M113 119L114 120L113 119z"/>
<path style="fill:#4c2e32; stroke:none;" d="M114 119L114 122L115 122L114 119z"/>
<path style="fill:#dab46f; stroke:none;" d="M125 119L126 120L125 119M182 119L183 120L182 119z"/>
<path style="fill:#a58047; stroke:none;" d="M183 119L183 120L188 120L183 119z"/>
<path style="fill:#dab46f; stroke:none;" d="M188 119L189 120L188 119z"/>
<path style="fill:#a58047; stroke:none;" d="M206 119L207 120L206 119z"/>
<path style="fill:#4c2e32; stroke:none;" d="M214 119L214 131L215 131L214 119z"/>
<path style="fill:#dab46f; stroke:none;" d="M215 119L215 122L216 122L215 119z"/>
<path style="fill:#a58047; stroke:none;" d="M228 119L229 120L228 119z"/>
<path style="fill:#4c2e32; stroke:none;" d="M229.667 119.333L230.333 119.667L229.667 119.333M239 119L240 124L241 124L239 119z"/>
<path style="fill:#a58047; stroke:none;" d="M251 119L252 120L251 119z"/>
<path style="fill:#4c2e32; stroke:none;" d="M87 120L87 124L88 124L89 120L87 120M97 120L98 121L97 120M125 120L125 121L129 122L125 120z"/>
<path style="fill:#a58047; stroke:none;" d="M129 120L128 151L129 151C131.242 143.415 132.078 127.336 129 120M143 120L143 150L144 150L143 120z"/>
<path style="fill:#4c2e32; stroke:none;" d="M144 120L144 121L159 121L144 120z"/>
<path style="fill:#dab46f; stroke:none;" d="M164 120L165 121L164 120z"/>
<path style="fill:#a58047; stroke:none;" d="M180 120L181 121L180 120z"/>
<path style="fill:#4c2e32; stroke:none;" d="M181 120L178 122L178 123L182 121L181 120z"/>
<path style="fill:#341f6b; stroke:none;" d="M182.044 120.873C172.757 124.573 174.353 155.347 187.956 150.242C198.647 146.23 195.626 115.462 182.044 120.873z"/>
<path style="fill:#4c2e32; stroke:none;" d="M187 120L187 121L193 125L187 120z"/>
<path style="fill:#a58047; stroke:none;" d="M189 120L190 121L189 120z"/>
<path style="fill:#dab46f; stroke:none;" d="M206.333 120.667L206.667 121.333L206.333 120.667z"/>
<path style="fill:#4c2e32; stroke:none;" d="M207.333 120.667L207.667 121.333L207.333 120.667M228 120C228.771 124.734 231.462 126.175 236 127L236 126L228 120M251.333 120.667L251.667 121.333L251.333 120.667z"/>
<path style="fill:#dab46f; stroke:none;" d="M75.3333 121.667L75.6667 122.333L75.3333 121.667z"/>
<path style="fill:#a58047; stroke:none;" d="M98 121L100 123L98 121z"/>
<path style="fill:#dab46f; stroke:none;" d="M178 121L179 122L178 121z"/>
<path style="fill:#a58047; stroke:none;" d="M190 121L191 122L190 121z"/>
<path style="fill:#dab46f; stroke:none;" d="M241 121L244 124L244 123L241 121M250 121L251 122L250 121M86.3333 122.667L86.6667 123.333L86.3333 122.667z"/>
<path style="fill:#4c2e32; stroke:none;" d="M98 122L99 123L98 122z"/>
<path style="fill:#a58047; stroke:none;" d="M114 122L114 125L115 125L114 122z"/>
<path style="fill:#dab46f; stroke:none;" d="M163 122L163 125L164 125L163 122z"/>
<path style="fill:#a58047; stroke:none;" d="M191 122L192 123L191 122M207 122L208 123L207 122M250 122L251 123L250 122M75 123L76 124L75 123z"/>
<path style="fill:#4c2e32; stroke:none;" d="M99.3333 123.667L99.6667 124.333L99.3333 123.667z"/>
<path style="fill:#a58047; stroke:none;" d="M177 123L176 125L177 123z"/>
<path style="fill:#dab46f; stroke:none;" d="M192 123L193 124L192 123M207 123L208 124L207 123z"/>
<path style="fill:#4c2e32; stroke:none;" d="M208 123L209 124L208 123z"/>
<path style="fill:#dab46f; stroke:none;" d="M215 123L215 129L216 129L215 123M245 123L245 124L250 124L245 123z"/>
<path style="fill:#4c2e32; stroke:none;" d="M250 123L251 124L250 123z"/>
<path style="fill:#dab46f; stroke:none;" d="M76 124L76 125L86 126L86 125L76 124z"/>
<path style="fill:#a58047; stroke:none;" d="M86 124L87 125L86 124M100.333 124.667L100.667 125.333L100.333 124.667z"/>
<path style="fill:#4c2e32; stroke:none;" d="M115 124L115 150L119 150L119 149L116 149L115 124M177 124L178 125L177 124z"/>
<path style="fill:#dab46f; stroke:none;" d="M193 124L194 125L193 124z"/>
<path style="fill:#a58047; stroke:none;" d="M208.333 124.667L208.667 125.333L208.333 124.667z"/>
<path style="fill:#dab46f; stroke:none;" d="M228 124L229 125L228 124z"/>
<path style="fill:#4c2e32; stroke:none;" d="M243 124L244 125L243 124M245 124L245 125L249 125L245 124z"/>
<path style="fill:#a58047; stroke:none;" d="M76 125L77 126L76 125z"/>
<path style="fill:#4c2e32; stroke:none;" d="M86 125L87 126L86 125z"/>
<path style="fill:#dab46f; stroke:none;" d="M114 125L114 144L115 144L114 125z"/>
<path style="fill:#4c2e32; stroke:none;" d="M128 125C128 134.101 129.5 143.82 125 152C131.16 148.222 130.619 131.241 128 125M176 125C176 133.539 173.038 147.428 183 151L183 150C173.197 144.33 179.576 133.522 176 125z"/>
<path style="fill:#a58047; stroke:none;" d="M193 125L194 126L193 125z"/>
<path style="fill:#4c2e32; stroke:none;" d="M209 125L209 132L210 132L209 125z"/>
<path style="fill:#dab46f; stroke:none;" d="M229 125L230 126L229 125z"/>
<path style="fill:#a58047; stroke:none;" d="M230 125L231 126L230 125z"/>
<path style="fill:#4c2e32; stroke:none;" d="M77 126L78 127L77 126M79.6667 126.333L80.3333 126.667L79.6667 126.333M82 126L82 127L85 127L82 126M100 126L101 127L100 126M193 126L193 129L194 129L193 126z"/>
<path style="fill:#dab46f; stroke:none;" d="M208.333 126.667L208.667 127.333L208.333 126.667M231 126L232 127L231 126z"/>
<path style="fill:#a58047; stroke:none;" d="M232 126L233 127L232 126M100.333 127.667L100.667 128.333L100.333 127.667M162.333 127.667L162.667 128.333L162.333 127.667z"/>
<path style="fill:#dab46f; stroke:none;" d="M194 127L195 128L194 127M234 127L235 128L234 127z"/>
<path style="fill:#a58047; stroke:none;" d="M235.667 127.333L236.333 127.667L235.667 127.333z"/>
<path style="fill:#4c2e32; stroke:none;" d="M237.667 127.333L238.333 127.667L237.667 127.333z"/>
<path style="fill:#a58047; stroke:none;" d="M194 128L194 132L195 132L194 128z"/>
<path style="fill:#dab46f; stroke:none;" d="M238 128L239 129L238 128z"/>
<path style="fill:#a58047; stroke:none;" d="M239.667 128.333L240.333 128.667L239.667 128.333z"/>
<path style="fill:#4c2e32; stroke:none;" d="M241 128L242 129L241 128M100 129C95.859 133.229 89.5605 132 84 132L84 133C88.1042 133 100.142 134.992 100 129M161.333 129.667L161.667 130.333L161.333 129.667z"/>
<path style="fill:#dab46f; stroke:none;" d="M162 129L162 133L163 133L162 129z"/>
<path style="fill:#a58047; stroke:none;" d="M215 129L215 132L216 132L215 129z"/>
<path style="fill:#dab46f; stroke:none;" d="M241.333 129.667L241.667 130.333L241.333 129.667z"/>
<path style="fill:#a58047; stroke:none;" d="M242.333 129.667L242.667 130.333L242.333 129.667z"/>
<path style="fill:#4c2e32; stroke:none;" d="M243 129L243 131L245 131L243 129z"/>
<path style="fill:#a58047; stroke:none;" d="M100 131L99 133L101 133L100 131z"/>
<path style="fill:#dab46f; stroke:none;" d="M244 131L245 132L244 131z"/>
<path style="fill:#a58047; stroke:none;" d="M245 131L246 132L245 131z"/>
<path style="fill:#4c2e32; stroke:none;" d="M246 131L247 132L246 131M161 132L161 143L162 143L161 132M194 132L193 142L194 142L194 132z"/>
<path style="fill:#a58047; stroke:none;" d="M209 132L210 133L209 132z"/>
<path style="fill:#4c2e32; stroke:none;" d="M215 132C217.352 136.289 220.318 137.874 225 139L225 138L215 132z"/>
<path style="fill:#dab46f; stroke:none;" d="M216 132L217 133L216 132M246 132L247 133L246 132z"/>
<path style="fill:#a58047; stroke:none;" d="M247 132L248 133L247 132z"/>
<path style="fill:#4c2e32; stroke:none;" d="M248 132L248 133L254 137L248 132M79 134L79 135L83 134L79 134z"/>
<path style="fill:#a58047; stroke:none;" d="M83.6667 133.333L84.3333 133.667L83.6667 133.333z"/>
<path style="fill:#dab46f; stroke:none;" d="M85 133L86 134L85 133M87.6667 133.333L88.3333 133.667L87.6667 133.333z"/>
<path style="fill:#4c2e32; stroke:none;" d="M209.667 133.333L210.333 133.667L209.667 133.333z"/>
<path style="fill:#dab46f; stroke:none;" d="M248 133L249 134L248 133z"/>
<path style="fill:#a58047; stroke:none;" d="M80 134L81 135L80 134z"/>
<path style="fill:#dab46f; stroke:none;" d="M81 134L82 135L81 134z"/>
<path style="fill:#a58047; stroke:none;" d="M209.333 134.667L209.667 135.333L209.333 134.667M217 134L218 135L217 134M250 134L251 135L250 134z"/>
<path style="fill:#4c2e32; stroke:none;" d="M77 135L72 142L73 142L78 136L77 135z"/>
<path style="fill:#a58047; stroke:none;" d="M78 135L79 136L78 135z"/>
<path style="fill:#dab46f; stroke:none;" d="M79 135L80 136L79 135z"/>
<path style="fill:#a58047; stroke:none;" d="M218 135L219 136L218 135M251 135L252 136L251 135M77 136L78 137L77 136z"/>
<path style="fill:#4c2e32; stroke:none;" d="M209 136L209 142L210 142L209 136z"/>
<path style="fill:#dab46f; stroke:none;" d="M220 136L221 137L220 136z"/>
<path style="fill:#a58047; stroke:none;" d="M252 136L253 137L252 136z"/>
<path style="fill:#dab46f; stroke:none;" d="M75.6667 137.333L76.3333 137.667L75.6667 137.333z"/>
<path style="fill:#a58047; stroke:none;" d="M223 137L224 138L223 137M253 137L254 138L253 137M74 138L75 139L74 138M225 138L226 139L225 138z"/>
<path style="fill:#dab46f; stroke:none;" d="M226 138L227 139L226 138M253 138L254 139L253 138z"/>
<path style="fill:#4c2e32; stroke:none;" d="M254 138L254 152L255 152L254 138z"/>
<path style="fill:#dab46f; stroke:none;" d="M92 139L92 140L101 140L92 139M208 139L208 142L209 142L208 139z"/>
<path style="fill:#4c2e32; stroke:none;" d="M226.667 139.333L227.333 139.667L226.667 139.333z"/>
<path style="fill:#dab46f; stroke:none;" d="M228 139L229 140L228 139z"/>
<path style="fill:#a58047; stroke:none;" d="M73 140L74 141L73 140M89 140L90 141L89 140z"/>
<path style="fill:#4c2e32; stroke:none;" d="M87 145L88 145L98 141C93.3243 139.042 88.8577 140.144 87 145z"/>
<path style="fill:#341f6b; stroke:none;" d="M99 140C96.73 140.542 94.2639 140.644 92.0424 141.303C79.2742 145.09 99.3744 157.932 99.9074 144.981C99.9819 143.172 99.502 141.702 99 140z"/>
<path style="fill:#4c2e32; stroke:none;" d="M99 140L101 142L99 140z"/>
<path style="fill:#a58047; stroke:none;" d="M100 140L101 141L100 140z"/>
<path style="fill:#dab46f; stroke:none;" d="M162.333 140.667L162.667 141.333L162.333 140.667z"/>
<path style="fill:#a58047; stroke:none;" d="M194.333 140.667L194.667 141.333L194.333 140.667z"/>
<path style="fill:#4c2e32; stroke:none;" d="M229 140L230 141L229 140z"/>
<path style="fill:#a58047; stroke:none;" d="M230 140L231 141L230 140z"/>
<path style="fill:#dab46f; stroke:none;" d="M231.667 140.333L232.333 140.667L231.667 140.333M87 141L88 142L87 141z"/>
<path style="fill:#4c2e32; stroke:none;" d="M231 141L231 142L234 142L231 141z"/>
<path style="fill:#a58047; stroke:none;" d="M234 141L235 142L234 141z"/>
<path style="fill:#dab46f; stroke:none;" d="M235 141L236 142L235 141z"/>
<path style="fill:#a58047; stroke:none;" d="M72 142L72 145L73 145L72 142M87 142L88 143L87 142M100.333 142.667L100.667 143.333L100.333 142.667M162 142L162 146L163 146L162 142z"/>
<path style="fill:#dab46f; stroke:none;" d="M194 142L194 145L195 145L194 142z"/>
<path style="fill:#a58047; stroke:none;" d="M208 142L208 145L209 145L208 142z"/>
<path style="fill:#4c2e32; stroke:none;" d="M235.667 142.333L236.333 142.667L235.667 142.333z"/>
<path style="fill:#a58047; stroke:none;" d="M237 142L238 143L237 142z"/>
<path style="fill:#dab46f; stroke:none;" d="M238 142L239 143L238 142M49 143L49 163L50 163L49 143z"/>
<path style="fill:#4c2e32; stroke:none;" d="M71 143L71 151L72 151L71 143z"/>
<path style="fill:#dab46f; stroke:none;" d="M86.3333 143.667L86.6667 144.333L86.3333 143.667z"/>
<path style="fill:#4c2e32; stroke:none;" d="M193 143L190 150L193 143M238 143L239 151L240 151C240.957 147.479 240.677 145.548 238 143z"/>
<path style="fill:#a58047; stroke:none;" d="M239.333 143.667L239.667 144.333L239.333 143.667z"/>
<path style="fill:#dab46f; stroke:none;" d="M240.333 143.667L240.667 144.333L240.333 143.667z"/>
<path style="fill:#4c2e32; stroke:none;" d="M100 144L100 147L101 147L100 144z"/>
<path style="fill:#a58047; stroke:none;" d="M114 144L115 145L114 144z"/>
<path style="fill:#dab46f; stroke:none;" d="M72.3333 145.667L72.6667 146.333L72.3333 145.667z"/>
<path style="fill:#a58047; stroke:none;" d="M86 145L86 149L87 149L86 145z"/>
<path style="fill:#dab46f; stroke:none;" d="M114 145L115 146L114 145z"/>
<path style="fill:#a58047; stroke:none;" d="M176 145L177 146L176 145z"/>
<path style="fill:#4c2e32; stroke:none;" d="M208 145L205 152L208 145z"/>
<path style="fill:#a58047; stroke:none;" d="M114 146L115 147L114 146z"/>
<path style="fill:#4c2e32; stroke:none;" d="M162 146L162 150L163 150L162 146z"/>
<path style="fill:#dab46f; stroke:none;" d="M176 146L177 147L176 146z"/>
<path style="fill:#a58047; stroke:none;" d="M193 146L194 147L193 146z"/>
<path style="fill:#dab46f; stroke:none;" d="M207 146L208 147L207 146z"/>
<path style="fill:#4c2e32; stroke:none;" d="M218 146L218 147L225 147L218 146z"/>
<path style="fill:#dab46f; stroke:none;" d="M241 146L241 149L242 149L241 146z"/>
<path style="fill:#a58047; stroke:none;" d="M100 147L100 150L101 150L100 147z"/>
<path style="fill:#dab46f; stroke:none;" d="M114.333 147.667L114.667 148.333L114.333 147.667M163 147L164 148L163 147z"/>
<path style="fill:#a58047; stroke:none;" d="M177 147L178 148L177 147z"/>
<path style="fill:#dab46f; stroke:none;" d="M193 147L194 148L193 147z"/>
<path style="fill:#a58047; stroke:none;" d="M207 147L208 148L207 147z"/>
<path style="fill:#4c2e32; stroke:none;" d="M216 147L217 148L216 147z"/>
<path style="fill:#a58047; stroke:none;" d="M217 147L217 148L226 148L217 147z"/>
<path style="fill:#4c2e32; stroke:none;" d="M87 148L94 152L94 151L87 148z"/>
<path style="fill:#dab46f; stroke:none;" d="M177 148L178 149L177 148z"/>
<path style="fill:#a58047; stroke:none;" d="M192 148L193 149L192 148z"/>
<path style="fill:#dab46f; stroke:none;" d="M216 148L217 149L216 148M225 148L226 149L225 148z"/>
<path style="fill:#4c2e32; stroke:none;" d="M226 148L227 149L226 148z"/>
<path style="fill:#dab46f; stroke:none;" d="M72 149L73 150L72 149M86 149L87 150L86 149z"/>
<path style="fill:#4c2e32; stroke:none;" d="M96 150L96 151L100 150L96 150z"/>
<path style="fill:#a58047; stroke:none;" d="M114 149L115 150L114 149z"/>
<path style="fill:#4c2e32; stroke:none;" d="M144 149L145 150L144 149M146 149L147 150L146 149z"/>
<path style="fill:#dab46f; stroke:none;" d="M163 149L164 150L163 149z"/>
<path style="fill:#a58047; stroke:none;" d="M178 149L179 150L178 149z"/>
<path style="fill:#dab46f; stroke:none;" d="M192 149L193 150L192 149z"/>
<path style="fill:#a58047; stroke:none;" d="M206 149L207 150L206 149z"/>
<path style="fill:#4c2e32; stroke:none;" d="M215 149C213.702 153.393 212.733 159.234 217 162L217 161L215 149z"/>
<path style="fill:#a58047; stroke:none;" d="M226 149L227 150L226 149M72.3333 150.667L72.6667 151.333L72.3333 150.667M88 150L89 151L88 150z"/>
<path style="fill:#dab46f; stroke:none;" d="M98 150L99 151L98 150M118 150L119 151L118 150z"/>
<path style="fill:#a58047; stroke:none;" d="M119 150L119 162L120 162C121.228 157.845 121.703 153.568 119 150z"/>
<path style="fill:#4c2e32; stroke:none;" d="M120 150L121 151L120 150z"/>
<path style="fill:#dab46f; stroke:none;" d="M146 150L147 151L146 150z"/>
<path style="fill:#a58047; stroke:none;" d="M147 150L148 151L147 150z"/>
<path style="fill:#4c2e32; stroke:none;" d="M148 150L148 151C152.361 153.447 152.943 156.188 153 161L154 161C153.981 155.52 153.613 151.972 148 150z"/>
<path style="fill:#a58047; stroke:none;" d="M163 150L164 151L163 150M180 150L181 151L180 150z"/>
<path style="fill:#4c2e32; stroke:none;" d="M188 150L189 151L188 150z"/>
<path style="fill:#a58047; stroke:none;" d="M189 150L190 151L189 150z"/>
<path style="fill:#dab46f; stroke:none;" d="M190 150L191 151L190 150M205 150L206 151L205 150M215 150L215 153L216 153L215 150M226 150L227 151L226 150z"/>
<path style="fill:#4c2e32; stroke:none;" d="M227 150L227 151L238 152L238 151L227 150z"/>
<path style="fill:#a58047; stroke:none;" d="M240 150L241 151L240 150z"/>
<path style="fill:#dab46f; stroke:none;" d="M89 151L90 152L89 151z"/>
<path style="fill:#a58047; stroke:none;" d="M90 151L91 152L90 151M94 151L94 152L97 152L94 151z"/>
<path style="fill:#dab46f; stroke:none;" d="M97 151L98 152L97 151z"/>
<path style="fill:#a58047; stroke:none;" d="M126 151L127 152L126 151z"/>
<path style="fill:#dab46f; stroke:none;" d="M149 151L150 152L149 151z"/>
<path style="fill:#4c2e32; stroke:none;" d="M163 151L166 155L163 151z"/>
<path style="fill:#dab46f; stroke:none;" d="M164 151L165 152L164 151M181 151L182 152L181 151z"/>
<path style="fill:#a58047; stroke:none;" d="M182.667 151.333L183.333 151.667L182.667 151.333z"/>
<path style="fill:#4c2e32; stroke:none;" d="M184 151L184 152L187 152L184 151z"/>
<path style="fill:#a58047; stroke:none;" d="M187.667 151.333L188.333 151.667L187.667 151.333M227 151L228 152L227 151M238 151L239 152L238 151z"/>
<path style="fill:#dab46f; stroke:none;" d="M239 151L240 152L239 151M253 151L254 152L253 151z"/>
<path style="fill:#4c2e32; stroke:none;" d="M72 152L74 155L72 152M121 152L121 159L122 159L121 152z"/>
<path style="fill:#a58047; stroke:none;" d="M124 152L125 153L124 152z"/>
<path style="fill:#dab46f; stroke:none;" d="M150 152L151 153L150 152z"/>
<path style="fill:#a58047; stroke:none;" d="M151 152L152 153L151 152M164 152L165 153L164 152M204 152L205 153L204 152z"/>
<path style="fill:#dab46f; stroke:none;" d="M228 152L228 153L231 153L228 152z"/>
<path style="fill:#a58047; stroke:none;" d="M231 152L231 153L234 153L231 152z"/>
<path style="fill:#dab46f; stroke:none;" d="M234 152L234 153L237 153L234 152z"/>
<path style="fill:#a58047; stroke:none;" d="M253 152L254 153L253 152z"/>
<path style="fill:#dab46f; stroke:none;" d="M73 153L74 154L73 153M124 153L125 154L124 153M152 153L153 154L152 153M165 153L166 154L165 153M203 153L202 155L203 153z"/>
<path style="fill:#4c2e32; stroke:none;" d="M204 153L205 154L204 153z"/>
<path style="fill:#dab46f; stroke:none;" d="M252 153L253 154L252 153z"/>
<path style="fill:#4c2e32; stroke:none;" d="M253 153L254 154L253 153M123.333 154.667L123.667 155.333L123.333 154.667M203 154L204 155L203 154z"/>
<path style="fill:#dab46f; stroke:none;" d="M215 154L217 161L215 154z"/>
<path style="fill:#4c2e32; stroke:none;" d="M252 154L253 155L252 154z"/>
<path style="fill:#a58047; stroke:none;" d="M74 155L75 156L74 155M166 155L168 159L169 159L166 155z"/>
<path style="fill:#4c2e32; stroke:none;" d="M202 155C196.672 164.738 185.536 163 176 163L176 164C182.51 164 203.511 166.201 202 155z"/>
<path style="fill:#a58047; stroke:none;" d="M251 155L250 157L251 155z"/>
<path style="fill:#4c2e32; stroke:none;" d="M74 156C78.9172 165.256 87.8733 164 97 164L97 163C87.0543 163 81.7946 162.517 74 156z"/>
<path style="fill:#dab46f; stroke:none;" d="M75 156L76 157L75 156M103 156L101 160L102 160L105 157L103 156z"/>
<path style="fill:#4c2e32; stroke:none;" d="M166 156L167 157L166 156z"/>
<path style="fill:#dab46f; stroke:none;" d="M201 156L202 157L201 156z"/>
<path style="fill:#4c2e32; stroke:none;" d="M251 156L252 157L251 156M103 157L102 160L104 162L105 162L103 157z"/>
<path style="fill:#a58047; stroke:none;" d="M104 157L104 160L105 160L104 157z"/>
<path style="fill:#4c2e32; stroke:none;" d="M123 157L123 161L124 161L123 157z"/>
<path style="fill:#dab46f; stroke:none;" d="M152 157L152 160L153 160L152 157z"/>
<path style="fill:#4c2e32; stroke:none;" d="M167 157L168 158L167 157z"/>
<path style="fill:#dab46f; stroke:none;" d="M200.333 157.667L200.667 158.333L200.333 157.667M249 157L250 158L249 157z"/>
<path style="fill:#4c2e32; stroke:none;" d="M250 157L249 160L250 157z"/>
<path style="fill:#dab46f; stroke:none;" d="M76 158L77 159L76 158M169 158L171 160L169 158z"/>
<path style="fill:#a58047; stroke:none;" d="M249 158L250 159L249 158z"/>
<path style="fill:#dab46f; stroke:none;" d="M77 159L78 160L77 159M124.333 159.667L124.667 160.333L124.333 159.667z"/>
<path style="fill:#4c2e32; stroke:none;" d="M168.667 159.333L169.333 159.667L168.667 159.333z"/>
<path style="fill:#a58047; stroke:none;" d="M199 159L200 160L199 159M248 159L249 160L248 159M78 160L79 161L78 160z"/>
<path style="fill:#dab46f; stroke:none;" d="M99 160L100 161L99 160z"/>
<path style="fill:#a58047; stroke:none;" d="M100 160L101 161L100 160z"/>
<path style="fill:#4c2e32; stroke:none;" d="M101 160L102 161L101 160z"/>
<path style="fill:#dab46f; stroke:none;" d="M105 160L109 163L109 162L105 160z"/>
<path style="fill:#a58047; stroke:none;" d="M152.333 160.667L152.667 161.333L152.333 160.667z"/>
<path style="fill:#4c2e32; stroke:none;" d="M170 160L170 161L175 163L175 162L170 160z"/>
<path style="fill:#a58047; stroke:none;" d="M171 160L172 161L171 160z"/>
<path style="fill:#dab46f; stroke:none;" d="M172 160L173 161L172 160M197 160L198 161L197 160M246 160L247 161L246 160z"/>
<path style="fill:#4c2e32; stroke:none;" d="M247 160L248 161L247 160z"/>
<path style="fill:#dab46f; stroke:none;" d="M80 161L81 162L80 161z"/>
<path style="fill:#a58047; stroke:none;" d="M98 161L97 163L98 161z"/>
<path style="fill:#4c2e32; stroke:none;" d="M99.6667 161.333L100.333 161.667L99.6667 161.333z"/>
<path style="fill:#dab46f; stroke:none;" d="M118 161L119 162L118 161z"/>
<path style="fill:#4c2e32; stroke:none;" d="M120 161L121 162L120 161z"/>
<path style="fill:#a58047; stroke:none;" d="M124.333 161.667L124.667 162.333L124.333 161.667M173 161L174 162L173 161z"/>
<path style="fill:#dab46f; stroke:none;" d="M174 161L175 162L174 161z"/>
<path style="fill:#a58047; stroke:none;" d="M195 161L196 162L195 161M217 161L218 162L217 161z"/>
<path style="fill:#dab46f; stroke:none;" d="M218 161L219 162L218 161M244 161L245 162L244 161z"/>
<path style="fill:#4c2e32; stroke:none;" d="M245.667 161.333L246.333 161.667L245.667 161.333z"/>
<path style="fill:#a58047; stroke:none;" d="M82 162L83 163L82 162z"/>
<path style="fill:#dab46f; stroke:none;" d="M83 162L83 163L86 163L83 162M87 162L87 163L97 163L87 162z"/>
<path style="fill:#4c2e32; stroke:none;" d="M98 162L99 163L98 162z"/>
<path style="fill:#a58047; stroke:none;" d="M105 162L106 163L105 162z"/>
<path style="fill:#dab46f; stroke:none;" d="M110 162L110 163L113 163L110 162M114.667 162.333L115.333 162.667L114.667 162.333z"/>
<path style="fill:#a58047; stroke:none;" d="M116.667 162.333L117.333 162.667L116.667 162.333z"/>
<path style="fill:#4c2e32; stroke:none;" d="M118.667 162.333L119.333 162.667L118.667 162.333z"/>
<path style="fill:#dab46f; stroke:none;" d="M125 162L125 163L152 163L125 162z"/>
<path style="fill:#4c2e32; stroke:none;" d="M152 162L153 163L152 162z"/>
<path style="fill:#a58047; stroke:none;" d="M175 162L176 163L175 162z"/>
<path style="fill:#dab46f; stroke:none;" d="M176 162L176 163L192 163L176 162z"/>
<path style="fill:#a58047; stroke:none;" d="M192.667 162.333L193.333 162.667L192.667 162.333z"/>
<path style="fill:#4c2e32; stroke:none;" d="M218.667 162.333L219.333 162.667L218.667 162.333z"/>
<path style="fill:#a58047; stroke:none;" d="M220.667 162.333L221.333 162.667L220.667 162.333z"/>
<path style="fill:#dab46f; stroke:none;" d="M222 162L222 163L242 163L222 162z"/>
<path style="fill:#a58047; stroke:none;" d="M242 162L243 163L242 162z"/>
<path style="fill:#4c2e32; stroke:none;" d="M243 162L244 163L243 162M63 163L63 171L64 171L63 163M106 163L106 164L116 164L106 163M125 163L125 164L152 164L125 163M221 163L221 164L241 164L221 163M242 163L243 164L242 163z"/>
<path style="fill:#a58047; stroke:none;" d="M30 164L30 165L40 166L30 164z"/>
<path style="fill:#4c2e32; stroke:none;" d="M39 164L40 165L39 164M29 165L28 170L29 170L29 165z"/>
<path style="fill:#dab46f; stroke:none;" d="M30 165L31 166L30 165M49 165L50 166L49 165z"/>
<path style="fill:#4c2e32; stroke:none;" d="M40 166L41 167L40 166z"/>
<path style="fill:#a58047; stroke:none;" d="M29 167L30 168L29 167M40.3333 167.667L40.6667 168.333L40.3333 167.667M48.3333 167.667L48.6667 168.333L48.3333 167.667z"/>
<path style="fill:#dab46f; stroke:none;" d="M62 167L62 170L63 170L62 167M29 168L30 169L29 168M40 169L40 172L41 172L40 169z"/>
<path style="fill:#4c2e32; stroke:none;" d="M41 169L43 173L41 169z"/>
<path style="fill:#dab46f; stroke:none;" d="M48 169L49 170L48 169z"/>
<path style="fill:#a58047; stroke:none;" d="M28 170L28 173L29 173L28 170M47 170L41 173L41 174C44.0013 173.773 47.0836 173.477 47 170M62 170L62 173L63 173L62 170z"/>
<path style="fill:#4c2e32; stroke:none;" d="M46 171L47 172L46 171M45 172L46 173L45 172M27 173L30 181L27 173z"/>
<path style="fill:#dab46f; stroke:none;" d="M28.3333 173.667L28.6667 174.333L28.3333 173.667z"/>
<path style="fill:#4c2e32; stroke:none;" d="M62.3333 173.667L62.6667 174.333L62.3333 173.667z"/>
<path style="fill:#dab46f; stroke:none;" d="M61 174L62 175L61 174z"/>
<path style="fill:#a58047; stroke:none;" d="M61 175L60 177L61 175z"/>
<path style="fill:#4c2e32; stroke:none;" d="M61 176L62 177L61 176z"/>
<path style="fill:#dab46f; stroke:none;" d="M28.3333 177.667L28.6667 178.333L28.3333 177.667M59 177L60 178L59 177z"/>
<path style="fill:#4c2e32; stroke:none;" d="M60 177L61 178L60 177M59 178L57 182L59 178z"/>
<path style="fill:#dab46f; stroke:none;" d="M29 179L30 180L29 179M58 179L59 180L58 179z"/>
<path style="fill:#a58047; stroke:none;" d="M30 180L31 181L30 180z"/>
<path style="fill:#dab46f; stroke:none;" d="M31 180L32 181L31 180M57 180L58 181L57 180z"/>
<path style="fill:#4c2e32; stroke:none;" d="M31 181L32 182L31 181z"/>
<path style="fill:#a58047; stroke:none;" d="M32 181L33 182L32 181z"/>
<path style="fill:#dab46f; stroke:none;" d="M55 181L56 182L55 181z"/>
<path style="fill:#a58047; stroke:none;" d="M56 181L57 182L56 181z"/>
<path style="fill:#4c2e32; stroke:none;" d="M33 182L33 183L37 184L37 183L33 182z"/>
<path style="fill:#a58047; stroke:none;" d="M34 182L35 183L34 182z"/>
<path style="fill:#dab46f; stroke:none;" d="M35 182L36 183L35 182M53 182L54 183L53 182z"/>
<path style="fill:#a58047; stroke:none;" d="M54 182L55 183L54 182z"/>
<path style="fill:#4c2e32; stroke:none;" d="M55 182L56 183L55 182z"/>
<path style="fill:#a58047; stroke:none;" d="M37.6667 183.333L38.3333 183.667L37.6667 183.333z"/>
<path style="fill:#dab46f; stroke:none;" d="M39.6667 183.333L40.3333 183.667L39.6667 183.333M49 183L50 184L49 183z"/>
<path style="fill:#a58047; stroke:none;" d="M50.6667 183.333L51.3333 183.667L50.6667 183.333z"/>
<path style="fill:#4c2e32; stroke:none;" d="M52.6667 183.333L53.3333 183.667L52.6667 183.333M38 184L38 185L49 185L38 184M28 189L27 213L27 257L28 257L28 189M31.6667 189.333L32.3333 189.667L31.6667 189.333M34 189L35 190L34 189M248 189L248 190L252 190L248 189z"/>
<path style="fill:#a58047; stroke:none;" d="M28 190L29 191L28 190z"/>
<path style="fill:#dab46f; stroke:none;" d="M29 190L29 191L35 191L35 248L36 232L35.6821 193.148L29 190z"/>
<path style="fill:#a58047; stroke:none;" d="M35 190L36 191L35 190M246 190L247 191L246 190z"/>
<path style="fill:#dab46f; stroke:none;" d="M246 247L247 247L247 191L254 191C245.112 187.311 246 197.098 246 203L246 247z"/>
<path style="fill:#4c2e32; stroke:none;" d="M254 190L254 257L255 257L255 211L254 190z"/>
<path style="fill:#fcce39; stroke:none;" d="M28 191L28 239L29.6034 254.972L42 256L75 256L203 256L239 256L252.397 254.972L254 239L254 191L247 191L247 232L245.397 246.397L231 248L192 248L35 248L35 191L28 191z"/>
<path style="fill:#4c2e32; stroke:none;" d="M245 191L245 243L246 243L246 208L245 191M36 193L36 247L37 247L37 211L36 193M245.333 245.667L245.667 246.333L245.333 245.667z"/>
<path style="fill:#a58047; stroke:none;" d="M36 247L36 248L246 248L226 247L184 247L36 247z"/>
<path style="fill:#dab46f; stroke:none;" d="M28 255L29 256L28 255M253 255L254 256L253 255z"/>
<path style="fill:#a58047; stroke:none;" d="M28 256L28 257L254 257L233 256L187 256L28 256z"/>
<path style="fill:#4c2e32; stroke:none;" d="M30 257L30 258L245 258L225 257L181 257L30 257M247 257L248 258L247 257M249 257L249 258L252 258L249 257z"/>
</svg>
