<?xml version="1.0" standalone="no"?>
<!DOCTYPE svg PUBLIC "-//W3C//DTD SVG 20010904//EN"
 "http://www.w3.org/TR/2001/REC-SVG-20010904/DTD/svg10.dtd">
<svg version="1.0" xmlns="http://www.w3.org/2000/svg"
 width="274.000000pt" height="274.000000pt" viewBox="0 0 274.000000 274.000000"
 preserveAspectRatio="xMidYMid meet">

<g transform="translate(0.000000,274.000000) scale(0.100000,-0.100000)"
fill="#000000" stroke="none">
<path d="M0 1370 l0 -1370 1370 0 1370 0 0 1370 0 1370 -1370 0 -1370 0 0
-1370z m2540 915 l0 -335 -40 0 -40 0 0 290 0 290 -1050 0 -1050 0 0 -290 0
-290 -40 0 -40 0 0 335 0 335 1130 0 1130 0 0 -335z m-941 -406 c17 -6 31 -17
31 -25 0 -8 5 -14 10 -14 13 0 13 -34 -2 -81 -11 -37 -13 -39 -53 -39 -38 0
-44 3 -55 30 -8 20 -19 30 -34 30 -38 -1 -55 -24 -62 -83 l-7 -57 82 0 81 0 0
-50 0 -50 -80 0 -80 0 0 -150 c0 -145 1 -150 20 -150 12 0 34 -7 50 -15 25
-13 30 -22 30 -53 0 -62 -2 -63 -151 -60 l-134 3 -3 47 c-3 41 0 49 22 64 26
16 26 17 26 164 0 146 0 149 -22 152 -19 2 -24 10 -26 45 -3 37 0 42 20 45 20
3 24 12 35 76 12 75 49 153 81 171 23 14 181 14 221 0z m-915 -41 c13 -49 7
-73 -24 -90 l-30 -17 0 -353 c0 -353 0 -353 -24 -398 -32 -62 -63 -75 -166
-75 -71 1 -91 4 -122 24 -41 25 -45 42 -28 115 10 47 18 53 67 51 36 -2 39 -4
49 -46 14 -56 36 -62 64 -17 19 31 20 49 20 369 l0 336 -26 13 c-21 12 -25 19
-20 43 3 16 6 38 6 48 0 17 9 19 114 19 109 0 114 -1 120 -22z m373 -200 c72
-18 93 -80 93 -272 l0 -125 28 -3 c25 -3 27 -7 30 -56 3 -48 1 -53 -23 -62
-15 -6 -48 -10 -76 -10 -46 0 -50 2 -63 33 -8 17 -15 27 -15 20 -2 -27 -67
-53 -136 -53 -83 0 -125 22 -154 84 -63 130 11 216 187 216 l82 0 0 44 c0 56
-34 96 -82 96 -42 0 -53 -8 -62 -42 -6 -26 -10 -28 -55 -28 -57 0 -61 6 -61
85 0 43 4 55 18 58 144 38 191 41 289 15z m915 0 c72 -21 118 -111 118 -230
-1 -99 -13 -145 -55 -209 -48 -71 -85 -89 -190 -88 -98 0 -124 11 -174 72 -34
41 -40 56 -47 114 -15 144 12 263 72 314 19 15 74 35 124 43 32 5 105 -2 152
-16z m501 1 c46 -11 47 -12 47 -49 0 -21 -4 -50 -10 -64 -8 -23 -15 -26 -55
-26 -41 0 -45 2 -45 24 0 27 -16 36 -65 36 -48 0 -65 -9 -65 -35 0 -30 14 -40
83 -60 31 -9 57 -20 57 -25 0 -5 12 -11 28 -15 15 -3 42 -19 60 -35 30 -28 32
-34 32 -96 0 -135 -59 -184 -221 -184 -52 0 -111 5 -131 11 -37 10 -38 11 -38
60 0 73 12 89 64 89 36 0 45 -4 54 -25 11 -24 16 -26 68 -23 63 3 81 19 71 59
-5 20 -23 30 -107 58 -125 42 -150 66 -150 146 0 76 22 123 68 142 77 32 147
35 255 12z m-2113 -1089 l0 -290 1050 0 1050 0 0 290 0 290 40 0 40 0 0 -335
0 -335 -1130 0 -1130 0 0 335 0 335 40 0 40 0 0 -290z"/>
<path d="M888 1328 c-24 -19 -31 -64 -13 -82 24 -24 55 -29 96 -16 38 13 39
14 39 62 l0 48 -53 0 c-29 0 -60 -6 -69 -12z"/>
<path d="M1814 1540 c-45 -18 -56 -54 -52 -167 3 -96 5 -106 27 -124 33 -27
67 -33 102 -19 43 18 53 44 53 146 1 102 -11 137 -56 160 -30 16 -44 17 -74 4z"/>
</g>
</svg>
